Coordinates
version=1
nRows=26
nColumns=24
inDegrees=yes

Units are S.I. units (second, meters, Newtons, ...)
If the header above contains a line with 'inDegrees', this indicates whether rotational values are in degrees (yes) or radians (no).

endheader
time	pelvis_tilt	pelvis_list	pelvis_rotation	pelvis_tx	pelvis_ty	pelvis_tz	lumbar_extension	lumbar_bending	lumbar_rotation	arm_flex_r	arm_add_r	arm_rot_r	elbow_flex_r	pro_sup_r	wrist_flex_r	wrist_dev_r	arm_flex_l	arm_add_l	arm_rot_l	elbow_flex_l	pro_sup_l	wrist_flex_l	wrist_dev_l
     33.02400000	    -15.42157217	     -2.46184081	      5.53788323	      1.20391369	      0.88091290	      0.15976310	     -7.60932931	     -4.17966939	      3.00010139	     12.98213991	    -20.41502112	     30.78274193	     70.87433212	     67.99215923	    -29.77765941	    -22.82990458	     13.96760136	    -10.94460239	     19.79214781	     15.34789444	     67.45917847	    -21.06258220	    -13.06184881
     33.02800000	    -15.44070450	     -2.42490622	      5.57417975	      1.20372041	      0.88076075	      0.15904863	     -7.62459306	     -4.14354399	      3.04682216	     12.97847281	    -20.51388010	     30.73099741	     70.56882584	     67.96386812	    -29.79912939	    -22.82386012	     13.98018079	    -10.83747871	     19.80960142	     15.42494692	     67.46914281	    -21.05686585	    -13.06958333
     33.03200000	    -15.45010003	     -2.39257518	      5.59993549	      1.20361954	      0.88060137	      0.15846405	     -7.63061592	     -4.11197687	      3.08085320	     12.99240915	    -20.57559253	     30.65838045	     70.22907161	     67.91430382	    -29.82075618	    -22.80230790	     13.97562348	    -10.75831387	     19.82219309	     15.46092402	     67.47453992	    -21.05440827	    -13.07290756
     33.03600000	    -15.43013345	     -2.43576650	      5.58229117	      1.20390527	      0.88079725	      0.15939871	     -7.61373591	     -4.15790499	      3.05020217	     13.14881937	    -20.22670728	     30.72750178	     69.36987751	     67.79938573	    -29.88243267	    -22.82179479	     13.97750554	    -10.87346832	     19.83005974	     15.33613811	     67.46899135	    -21.05430531	    -13.05987573
     33.04000000	    -15.45988277	     -2.44249006	      5.55765190	      1.20343586	      0.88096616	      0.15965454	     -7.64721051	     -4.15915759	      3.02643764	     13.40838123	    -20.08048759	     30.94572477	     68.60502575	     67.85631279	    -29.97328902	    -23.07495793	     14.00614007	    -10.91989577	     19.86048393	     15.37404102	     67.48012711	    -21.03417836	    -13.05771530
     33.04400000	    -15.48664547	     -2.40968062	      5.62731488	      1.20325721	      0.88076338	      0.15904927	     -7.66926398	     -4.13143075	      3.10549468	     13.35596006	    -20.20521584	     30.93402177	     68.31639428	     67.82494214	    -29.97575306	    -23.05289629	     14.05455494	    -10.82153279	     19.87027547	     15.45992107	     67.48766767	    -21.03003615	    -13.06537697
     33.04800000	    -15.46173654	     -2.41105683	      5.63540970	      1.20368242	      0.88070192	      0.15930255	     -7.64193260	     -4.13769985	      3.10909958	     13.48775087	    -20.03275502	     31.19091051	     67.51972363	     67.60055019	    -29.73579115	    -22.73209070	     14.03645636	    -10.85038564	     19.93602149	     15.34291380	     67.49741891	    -21.00698324	    -13.03473007
     33.05200000	    -15.48172681	     -2.37614144	      5.67865365	      1.20348097	      0.88054420	      0.15858770	     -7.65798968	     -4.10443773	      3.16251035	     13.47079154	    -20.13728254	     31.15042977	     67.21834667	     67.55330921	    -29.72175586	    -22.68255416	     14.05793672	    -10.73883243	     19.95209518	     15.42606288	     67.50643793	    -21.00074831	    -13.04145902
     33.05600000	    -15.47057008	     -2.38341522	      5.62650453	      1.20349083	      0.88064043	      0.15877281	     -7.64934335	     -4.10623180	      3.10813296	     13.65153532	    -19.90715845	     31.15349739	     66.50257799	     67.42356565	    -29.65519008	    -22.56678769	     14.01722926	    -10.77075699	     19.94566494	     15.32474409	     67.49390175	    -21.00188515	    -13.02341725
     33.06000000	    -15.48956948	     -2.36548477	      5.67532521	      1.20328370	      0.88055253	      0.15836434	     -7.66581196	     -4.09177158	      3.16288663	     13.61881171	    -19.99906187	     31.13436759	     66.22452206	     67.39174090	    -29.65524454	    -22.54561128	     14.06422657	    -10.70398020	     19.95026966	     15.40295071	     67.50039717	    -20.99854571	    -13.03137140
     33.06400000	    -15.49508946	     -2.39258547	      5.65114704	      1.20315616	      0.88075649	      0.15897870	     -7.67528370	     -4.11694000	      3.13238969	     13.82804369	    -19.72050122	     31.17176608	     65.42167802	     67.32128250	    -29.66641811	    -22.58680787	     14.08671407	    -10.78172615	     19.93308540	     15.34049564	     67.49259546	    -20.99769893	    -13.01915072
     33.06800000	    -15.51549271	     -2.35483797	      5.69712443	      1.20299770	      0.88054020	      0.15831123	     -7.69140000	     -4.08143741	      3.18857991	     13.82456656	    -19.84056014	     31.11759012	     65.14244127	     67.29646656	    -29.68218090	    -22.58410441	     14.10412398	    -10.68596078	     19.94597615	     15.41799056	     67.50138879	    -20.99256739	    -13.02609317
     33.07200000	    -15.53637294	     -2.31826432	      5.74065216	      1.20288968	      0.88035417	      0.15770130	     -7.70781279	     -4.04695598	      3.24182788	     13.80950536	    -19.92160353	     31.06021528	     64.81584349	     67.26551386	    -29.70826927	    -22.58210302	     14.12132768	    -10.58837222	     19.96006692	     15.47432535	     67.50838617	    -20.98837877	    -13.02981154
     33.07600000	    -15.52402548	     -2.35873155	      5.73446856	      1.20307551	      0.88053924	      0.15864373	     -7.69854936	     -4.09098416	      3.22345520	     13.96570516	    -19.55672371	     31.09832127	     63.94026668	     67.25569988	    -29.86764724	    -22.79671598	     14.15497544	    -10.69743968	     19.98418836	     15.35268560	     67.51006112	    -20.97735478	    -13.00289142
     33.08000000	    -15.67570236	     -2.37278204	      5.65224529	      1.20073409	      0.88120165	      0.15899302	     -7.86588332	     -4.07896293	      3.15397585	     14.59411670	    -19.44907748	     31.48278617	     63.09831505	     67.48820213	    -30.25602004	    -23.83265761	     14.34432001	    -10.77662855	     19.99850760	     15.56700899	     67.53383546	    -20.90668661	    -12.96689012
     33.08400000	    -15.67052507	     -2.34843195	      5.66137801	      1.20073696	      0.88113796	      0.15845479	     -7.85780560	     -4.05472317	      3.16908380	     14.61440750	    -19.42524060	     31.40531395	     62.62602355	     67.37840718	    -30.29701439	    -23.83262920	     14.36215962	    -10.66343183	     19.95873223	     15.45424024	     67.50421000	    -20.92536507	    -12.94272680
     33.08800000	    -15.68376275	     -2.33345306	      5.72461336	      1.20066123	      0.88099053	      0.15814346	     -7.86778937	     -4.04637099	      3.23647938	     14.56039947	    -19.50949072	     31.38738078	     62.34967966	     67.33733739	    -30.31014814	    -23.81747610	     14.41487396	    -10.60454391	     19.95708198	     15.50260644	     67.50635485	    -20.92641520	    -12.94779080
     33.09200000	    -15.66030540	     -2.35726302	      5.72027491	      1.20096975	      0.88109033	      0.15869622	     -7.84503154	     -4.07379168	      3.22341139	     14.66293236	    -19.20889856	     31.36569079	     61.52329045	     67.16406539	    -30.44219460	    -23.87288455	     14.42924539	    -10.64576118	     19.94292898	     15.33995095	     67.49251595	    -20.93849762	    -12.92998400
     33.09600000	    -15.69262211	     -2.33143954	      5.71237969	      1.20069213	      0.88110153	      0.15821421	     -7.87627627	     -4.04208719	      3.22500861	     14.77095565	    -19.16342312	     31.28042010	     60.96847904	     67.04689574	    -30.63298586	    -23.96358872	     14.40185807	    -10.57051338	     19.96619370	     15.36950362	     67.50578995	    -20.93144840	    -12.93355177
     33.10000000	    -15.81012898	     -2.36584561	      5.66198124	      1.19871575	      0.88164811	      0.15904212	     -8.00886686	     -4.05939927	      3.17784896	     15.35035884	    -19.02564153	     31.84809309	     60.14344629	     66.79653452	    -31.65274161	    -24.99999983	     14.62723310	    -10.71273790	     19.96268565	     15.54638958	     67.53915692	    -20.88446316	    -12.92726011
     33.10400000	    -15.82708069	     -2.33607645	      5.71838597	      1.19864243	      0.88149286	      0.15850292	     -8.02121900	     -4.03444628	      3.24223083	     15.28899696	    -19.12764650	     31.80802257	     59.88807197	     66.74845855	    -31.67053277	    -24.98385419	     14.67046908	    -10.61098999	     19.95843747	     15.58146630	     67.53690189	    -20.88677428	    -12.92708447
     33.10800000	    -15.84219083	     -2.30279806	      5.76825241	      1.19861532	      0.88128796	      0.15796763	     -8.03159006	     -4.00529907	      3.30042945	     15.24283396	    -19.21244226	     31.74182322	     59.59040703	     66.69237532	    -31.69652562	    -24.96780248	     14.68701766	    -10.50911655	     19.95757317	     15.59488300	     67.53015604	    -20.89084047	    -12.92822455
     33.11200000	    -15.85040168	     -2.27198888	      5.80765411	      1.19862765	      0.88116332	      0.15737053	     -8.03513109	     -3.97752799	      3.34773777	     15.20347512	    -19.25004409	     31.66197156	     59.21481818	     66.62318012	    -31.73117800	    -24.95085766	     14.68817316	    -10.37797166	     19.95316398	     15.58446758	     67.50737414	    -20.90196195	    -12.93656672
     33.11600000	    -15.84127295	     -2.24971524	      5.84108683	      1.19875003	      0.88104142	      0.15696461	     -8.02194008	     -3.95981956	      3.38527532	     15.16990460	    -19.23912648	     31.59012502	     58.76927098	     66.54360687	    -31.77401979	    -24.93370036	     14.69619989	    -10.29091860	     19.94206938	     15.54469957	     67.47583725	    -20.91780346	    -12.94845597
     33.12000000	    -15.77249427	     -2.30489800	      5.81244907	      1.19966795	      0.88112786	      0.15809066	     -7.95499522	     -4.02174641	      3.33610089	     15.26448177	    -18.77056262	     31.63514159	     57.80138390	     66.37020920	    -31.93607788	    -24.99999983	     14.64460751	    -10.42141609	     19.89790403	     15.26322982	     67.35397102	    -20.96876659	    -13.00532754
     33.12400000	    -15.76920190	     -2.31718998	      5.79342470	      1.19970374	      0.88120188	      0.15845828	     -7.95337224	     -4.03292784	      3.31312085	     15.50270586	    -18.57884951	     31.91043604	     57.00224763	     66.31120884	    -32.16104355	    -24.99999983	     14.60203642	    -10.49349466	     19.93507363	     15.32819572	     67.25166455	    -20.97512530	    -13.14263464
